<?xml version="1.0" encoding="utf-8"?>
<!-- Svg Vector Icons : http://www.onlinewebfonts.com/icon -->
<!DOCTYPE svg PUBLIC "-//W3C//DTD SVG 1.1//EN" "http://www.w3.org/Graphics/SVG/1.1/DTD/svg11.dtd">
<svg version="1.1" xmlns="http://www.w3.org/2000/svg" xmlns:xlink="http://www.w3.org/1999/xlink" x="0px" y="0px" viewBox="0 0 1000 1000" enable-background="new 0 0 1000 1000" xml:space="preserve">
<metadata> Svg Vector Icons : http://www.onlinewebfonts.com/icon </metadata>
<g><g><g><g><path d="M561.2,438.8h244.9V255H561.2V10h-158c-6.2,50.5-17.8,92.2-34.4,124.9c-16.6,32.8-38.6,60.8-66.1,84.2c-27.3,23.3-70.3,41.3-108.8,53.8v165.9h131.5v316.5h-0.1c0,44.7,4.7,79,14.1,102.6c9.4,23.6,26.2,45.9,50.6,66.8c24.3,20.8,53.7,37.1,88.1,48.4c34.5,11.3,60.8,16.8,105.7,16.8c39.5,0,76.1-3.9,110.1-11.8c33.9-8,70.4-19.4,112.3-39.2V791.6c-49.1,32.3-78.4,38.8-128,38.8c-27.9,0-52.6-6.4-74.4-19.4c-16.4-9.6-31.2-26.4-37.2-42.3c-6.1-16.1-5.3-48.9-5.3-105.8L561.2,438.8z"/></g></g></g><g></g><g></g><g></g><g></g><g></g><g></g><g></g><g></g><g></g><g></g><g></g><g></g><g></g><g></g><g></g></g>
</svg>